<svg width="1636" height="947" viewBox="0 0 1636 947" fill="none" xmlns="http://www.w3.org/2000/svg">
<rect width="1636" height="947" fill="#D9D9D9"/>
<path d="M866.692 438.385H848.011L843.56 425.912C843.253 425.059 842.689 424.321 841.947 423.8C841.205 423.278 840.319 422.999 839.412 423H797.269C795.415 423 793.753 424.168 793.135 425.912L788.67 438.385H769.989C763.918 438.385 759 443.302 759 449.374V512.011C759 518.082 763.918 523 769.989 523H866.692C872.764 523 877.681 518.082 877.681 512.011V449.374C877.681 443.302 872.764 438.385 866.692 438.385ZM818.341 501.022C806.198 501.022 796.363 491.187 796.363 479.044C796.363 466.901 806.198 457.066 818.341 457.066C830.484 457.066 840.319 466.901 840.319 479.044C840.319 491.187 830.484 501.022 818.341 501.022ZM805.154 479.044C805.154 482.541 806.543 485.895 809.016 488.368C811.489 490.841 814.843 492.231 818.341 492.231C821.838 492.231 825.192 490.841 827.665 488.368C830.138 485.895 831.527 482.541 831.527 479.044C831.527 475.547 830.138 472.192 827.665 469.719C825.192 467.246 821.838 465.857 818.341 465.857C814.843 465.857 811.489 467.246 809.016 469.719C806.543 472.192 805.154 475.547 805.154 479.044Z" fill="black" fill-opacity="0.3"/>
</svg>
