<svg width="947" height="1637" viewBox="0 0 947 1637" fill="none" xmlns="http://www.w3.org/2000/svg">
<rect width="1636" height="947" transform="translate(947 0.5) rotate(90)" fill="#D9D9D9"/>
<path d="M522.352 784.225H503.67L499.22 771.753C498.912 770.899 498.349 770.162 497.606 769.64C496.864 769.119 495.979 768.84 495.072 768.841H452.929C451.074 768.841 449.412 770.008 448.794 771.753L444.33 784.225H425.648C419.577 784.225 414.659 789.143 414.659 795.214V857.852C414.659 863.923 419.577 868.841 425.648 868.841H522.352C528.423 868.841 533.341 863.923 533.341 857.852V795.214C533.341 789.143 528.423 784.225 522.352 784.225ZM474 846.863C461.857 846.863 452.022 837.027 452.022 824.885C452.022 812.742 461.857 802.907 474 802.907C486.143 802.907 495.978 812.742 495.978 824.885C495.978 837.027 486.143 846.863 474 846.863ZM460.813 824.885C460.813 828.382 462.203 831.736 464.676 834.209C467.149 836.682 470.503 838.071 474 838.071C477.497 838.071 480.852 836.682 483.325 834.209C485.798 831.736 487.187 828.382 487.187 824.885C487.187 821.387 485.798 818.033 483.325 815.56C480.852 813.087 477.497 811.698 474 811.698C470.503 811.698 467.149 813.087 464.676 815.56C462.203 818.033 460.813 821.387 460.813 824.885Z" fill="black" fill-opacity="0.3"/>
</svg>
