<svg width="947" height="947" viewBox="0 0 947 947" fill="none" xmlns="http://www.w3.org/2000/svg">
<rect width="947" height="947" transform="translate(947) rotate(90)" fill="#D9D9D9"/>
<path d="M522.352 439.225H503.67L499.22 426.753C498.912 425.899 498.349 425.162 497.606 424.64C496.864 424.119 495.979 423.84 495.072 423.841H452.929C451.074 423.841 449.412 425.008 448.794 426.753L444.33 439.225H425.648C419.577 439.225 414.659 444.143 414.659 450.214V512.852C414.659 518.923 419.577 523.841 425.648 523.841H522.352C528.423 523.841 533.341 518.923 533.341 512.852V450.214C533.341 444.143 528.423 439.225 522.352 439.225ZM474 501.863C461.857 501.863 452.022 492.027 452.022 479.885C452.022 467.742 461.857 457.907 474 457.907C486.143 457.907 495.978 467.742 495.978 479.885C495.978 492.027 486.143 501.863 474 501.863ZM460.813 479.885C460.813 483.382 462.203 486.736 464.676 489.209C467.149 491.682 470.503 493.071 474 493.071C477.497 493.071 480.852 491.682 483.325 489.209C485.798 486.736 487.187 483.382 487.187 479.885C487.187 476.387 485.798 473.033 483.325 470.56C480.852 468.087 477.497 466.698 474 466.698C470.503 466.698 467.149 468.087 464.676 470.56C462.203 473.033 460.813 476.387 460.813 479.885Z" fill="black" fill-opacity="0.3"/>
</svg>
